<?xml version="1.0" encoding="UTF-8"?>
<svg xmlns="http://www.w3.org/2000/svg" xmlns:xlink="http://www.w3.org/1999/xlink" width="192px" height="192px" viewBox="0 0 192 192" version="1.1">
<defs>
<g>
<symbol overflow="visible" id="glyph0-0">
<path style="stroke:none;" d="M 13.75 0 L 13.75 -68.75 L 68.75 -68.75 L 68.75 0 Z M 15.46875 -1.71875 L 67.03125 -1.71875 L 67.03125 -67.03125 L 15.46875 -67.03125 Z M 15.46875 -1.71875 "/>
</symbol>
<symbol overflow="visible" id="glyph0-1">
<path style="stroke:none;" d="M 8.171875 0 L 8.171875 -78.734375 L 23.640625 -78.734375 L 55.859375 -26.15625 L 55.859375 -78.734375 L 70.625 -78.734375 L 70.625 0 L 54.671875 0 L 22.9375 -51.34375 L 22.9375 0 Z M 8.171875 0 "/>
</symbol>
</g>
<linearGradient id="linear0" gradientUnits="userSpaceOnUse" x1="0" y1="0" x2="1" y2="1" gradientTransform="matrix(192,0,0,192,0,0)">
<stop offset="0" style="stop-color:rgb(40%,49.411765%,91.764706%);stop-opacity:1;"/>
<stop offset="1" style="stop-color:rgb(46.27451%,29.411765%,63.529412%);stop-opacity:1;"/>
</linearGradient>
</defs>
<g id="surface1">
<path style=" stroke:none;fill-rule:nonzero;fill:url(#linear0);" d="M 40 0 L 152 0 C 174.089844 0 192 17.910156 192 40 L 192 152 C 192 174.089844 174.089844 192 152 192 L 40 192 C 17.910156 192 0 174.089844 0 152 L 0 40 C 0 17.910156 17.910156 0 40 0 Z M 40 0 "/>
<g style="fill:rgb(100%,100%,100%);fill-opacity:1;">
  <use xlink:href="#glyph0-1" x="56.28125" y="135.001953"/>
</g>
</g>
</svg>
